<?xml version="1.0" encoding="utf-8" ?><svg xmlns="http://www.w3.org/2000/svg" xmlns:xlink="http://www.w3.org/1999/xlink" width="1024" height="1024" viewBox="0 0 1024 1024"><path fill="#FEC200" d="M396.928 716.3C387.765 709.281 380.793 701.828 372.528 693.956C357.447 679.592 341.829 665.531 327.366 650.52C305.349 627.669 282.311 606.02 260.067 583.387C249.306 572.439 239.449 563.574 230.759 550.688C210.807 521.102 210.197 483.463 228.287 452.881C237.311 438.026 253.393 423.393 265.672 410.831C301.092 374.989 335.578 336.711 371.994 302.022C403.92 271.61 459.743 273.912 491.929 302.603C507.726 316.685 522.187 331.358 537.24 346.019L576.22 383.697C588.943 396.063 603.922 409.328 615.221 422.917C619.208 427.712 623.948 438.276 623.88 444.753C623.669 466.226 611.01 478.047 597.652 492.571C578.06 513.874 551.713 529.539 523.45 513.566C516.356 509.557 509.683 501.509 503.607 495.902C495.004 487.964 486.238 479.746 477.7 471.702C468.989 463.506 459.026 453.206 449.635 445.95C445.946 443.1 438.282 440.986 433.764 441.255C430.186 441.468 423.766 442.76 420.968 445.029C410.281 453.727 400.694 464.486 391.121 474.461C379.127 486.961 366.943 499.109 355.146 511.8C349.398 517.983 344.155 523.996 344.57 533.198C344.817 538.678 347.194 543.912 350.68 548.168C368.199 566.779 387.514 584.158 405.855 601.878L465.782 659.88C472.644 666.45 480.442 674.803 487.326 680.953C463.459 706.422 434.046 733.644 396.928 716.3Z"/><path fill="#0F62C3" d="M487.326 680.953L599.552 565.787L632.265 532.251C648.528 515.66 660.581 500.561 686.019 500.296C711.364 500.032 724.791 510.881 742.306 527.342L761.575 545.638C766.825 550.719 772.972 557.343 778.107 562.088C794.18 576.941 803.419 590.998 803.746 613.663C804.006 631.683 796.087 645.02 783.588 657.657L667.981 773.236L630 810.561C609.149 830.675 593.902 846.369 562.809 846.912C532.254 847.445 514.201 831.33 493.761 811.05L424.839 743.022C416.923 735.237 403.932 724.451 396.928 716.3C434.046 733.644 463.459 706.422 487.326 680.953Z"/><path fill="#FEC200" d="M617.449 161.511C666.019 157.505 708.66 193.585 712.747 242.148C716.835 290.711 680.826 333.412 632.27 337.581C583.6 341.759 540.776 305.647 536.678 256.969C532.58 208.291 568.765 165.528 617.449 161.511Z"/></svg>